<?xml version="1.0" standalone="no"?>
<!DOCTYPE svg PUBLIC "-//W3C//DTD SVG 20010904//EN"
 "http://www.w3.org/TR/2001/REC-SVG-20010904/DTD/svg10.dtd">
<svg version="1.0" xmlns="http://www.w3.org/2000/svg"
 width="700.000000pt" height="700.000000pt" viewBox="0 0 700.000000 700.000000"
 preserveAspectRatio="xMidYMid meet">
<metadata>
Created by potrace 1.14, written by Peter Selinger 2001-2017
</metadata>
<g transform="translate(0.000000,700.000000) scale(0.100000,-0.100000)"
fill="#000000" stroke="none">
<path d="M2265 6335 c-238 -52 -436 -231 -507 -458 -25 -81 -30 -131 -32 -317
l-1 -155 -530 -1 c-498 -1 -535 -3 -605 -22 -85 -22 -220 -80 -220 -93 0 -5
-5 -9 -11 -9 -15 0 -96 -65 -148 -120 -91 -95 -151 -205 -186 -342 l-24 -93 0
-1685 c0 -1040 4 -1707 10 -1743 53 -318 314 -581 629 -634 25 -5 1318 -8
2875 -8 2745 0 2832 1 2900 19 276 75 467 261 558 543 l22 68 2 1725 c3 1709
3 1727 -17 1800 -40 147 -110 269 -207 366 -116 115 -248 185 -407 216 -41 7
-231 12 -571 13 -280 2 -513 3 -516 4 -3 0 -5 70 -6 154 0 83 -3 175 -6 203
-31 247 -214 465 -462 551 l-80 28 -1200 2 c-959 1 -1212 -1 -1260 -12z m1435
-1609 c228 -29 528 -132 674 -231 20 -14 40 -25 43 -25 11 0 187 -137 250
-194 253 -233 456 -601 512 -931 5 -33 13 -76 16 -95 16 -82 12 -374 -5 -475
-28 -158 -28 -159 -69 -283 -49 -149 -97 -249 -186 -387 -291 -450 -730 -717
-1281 -780 -79 -9 -296 -4 -389 9 -25 4 -104 19 -153 30 -320 72 -652 266
-867 505 -16 19 -38 43 -49 55 -81 90 -196 274 -258 411 -64 144 -95 254 -136
494 -11 58 -8 373 3 431 44 234 80 349 160 515 122 251 292 455 520 624 111
83 134 97 264 161 97 48 297 121 366 133 17 3 41 8 55 11 133 30 386 40 530
22z"/>
<path d="M3375 4149 c-260 -34 -480 -138 -658 -312 -160 -156 -265 -341 -317
-559 -24 -97 -33 -310 -18 -408 62 -415 347 -764 737 -904 143 -51 210 -61
401 -60 132 1 169 5 250 27 52 14 109 31 125 38 17 7 32 13 35 13 3 1 32 14
65 30 141 69 256 159 376 296 12 14 45 61 74 105 45 70 65 107 106 200 50 116
78 282 74 440 -5 145 -8 169 -41 282 -91 316 -321 583 -619 718 -62 28 -153
61 -200 71 -122 27 -288 36 -390 23z"/>
</g>
</svg>
